<mxfile host="app.diagrams.net" modified="2024-06-16T21:19:11.737Z" agent="Mozilla/5.0 (X11; Linux x86_64; rv:126.0) Gecko/20100101 Firefox/126.0" etag="1ws0_ET5OA5pTKSZeXRC" version="24.5.4" type="device">
  <diagram name="Page-1" id="pp5r0h06QjeanPPHAAY9">
    <mxGraphModel dx="673" dy="336" grid="1" gridSize="10" guides="1" tooltips="1" connect="1" arrows="1" fold="1" page="1" pageScale="1" pageWidth="850" pageHeight="1100" math="0" shadow="0">
      <root>
        <mxCell id="0" />
        <mxCell id="1" parent="0" />
        <mxCell id="TMEMqODfY8c8Sf2eollF-1" value="Aktivno" style="shape=ellipse;html=1;dashed=0;whiteSpace=wrap;aspect=fixed;perimeter=ellipsePerimeter;fontFamily=Times New Roman;fontSize=11;" vertex="1" parent="1">
          <mxGeometry x="390" y="340" width="60" height="60" as="geometry" />
        </mxCell>
        <mxCell id="TMEMqODfY8c8Sf2eollF-2" value="Pasivno " style="shape=ellipse;html=1;dashed=0;whiteSpace=wrap;aspect=fixed;perimeter=ellipsePerimeter;fontFamily=Times New Roman;fontSize=11;" vertex="1" parent="1">
          <mxGeometry x="300" y="430" width="60" height="60" as="geometry" />
        </mxCell>
        <mxCell id="TMEMqODfY8c8Sf2eollF-3" value="&lt;i style=&quot;font-size: 11px;&quot;&gt;bus off&lt;br style=&quot;font-size: 11px;&quot;&gt;&lt;/i&gt;" style="shape=ellipse;html=1;dashed=0;whiteSpace=wrap;aspect=fixed;perimeter=ellipsePerimeter;fontFamily=Times New Roman;fontSize=11;" vertex="1" parent="1">
          <mxGeometry x="480" y="430" width="60" height="60" as="geometry" />
        </mxCell>
        <mxCell id="TMEMqODfY8c8Sf2eollF-5" value="" style="endArrow=classicThin;html=1;rounded=0;startArrow=none;startFill=0;endFill=1;fontFamily=Times New Roman;fontSize=11;" edge="1" parent="1">
          <mxGeometry width="50" height="50" relative="1" as="geometry">
            <mxPoint x="360" y="450" as="sourcePoint" />
            <mxPoint x="410" y="400" as="targetPoint" />
          </mxGeometry>
        </mxCell>
        <mxCell id="TMEMqODfY8c8Sf2eollF-6" value="" style="endArrow=none;html=1;rounded=0;startArrow=classicThin;startFill=1;endFill=0;fontFamily=Times New Roman;fontSize=11;" edge="1" parent="1">
          <mxGeometry width="50" height="50" relative="1" as="geometry">
            <mxPoint x="340" y="430" as="sourcePoint" />
            <mxPoint x="390" y="380" as="targetPoint" />
          </mxGeometry>
        </mxCell>
        <mxCell id="TMEMqODfY8c8Sf2eollF-12" value="&lt;div style=&quot;font-size: 8px;&quot;&gt;REC &amp;lt; 127&amp;nbsp;&lt;/div&gt;&lt;div style=&quot;font-size: 8px;&quot;&gt;ili&lt;br style=&quot;font-size: 8px;&quot;&gt;&lt;/div&gt;&lt;div style=&quot;font-size: 8px;&quot;&gt;TEC &amp;lt; 127&lt;br style=&quot;font-size: 8px;&quot;&gt;&lt;/div&gt;" style="edgeLabel;html=1;align=center;verticalAlign=middle;resizable=0;points=[];labelBackgroundColor=default;fontFamily=Times New Roman;fontSize=8;" vertex="1" connectable="0" parent="TMEMqODfY8c8Sf2eollF-6">
          <mxGeometry x="-0.1495" relative="1" as="geometry">
            <mxPoint x="49" y="21" as="offset" />
          </mxGeometry>
        </mxCell>
        <mxCell id="TMEMqODfY8c8Sf2eollF-7" value="" style="endArrow=classicThin;html=1;rounded=0;startArrow=none;startFill=0;endFill=1;entryX=0;entryY=0.5;entryDx=0;entryDy=0;fontFamily=Times New Roman;fontSize=11;" edge="1" parent="1" target="TMEMqODfY8c8Sf2eollF-3">
          <mxGeometry width="50" height="50" relative="1" as="geometry">
            <mxPoint x="360" y="460" as="sourcePoint" />
            <mxPoint x="410" y="410" as="targetPoint" />
          </mxGeometry>
        </mxCell>
        <mxCell id="TMEMqODfY8c8Sf2eollF-11" value="TEC &amp;gt; 255" style="edgeLabel;html=1;align=center;verticalAlign=middle;resizable=0;points=[];fontFamily=Times New Roman;fontSize=8;" vertex="1" connectable="0" parent="TMEMqODfY8c8Sf2eollF-7">
          <mxGeometry x="0.0532" y="-1" relative="1" as="geometry">
            <mxPoint as="offset" />
          </mxGeometry>
        </mxCell>
        <mxCell id="TMEMqODfY8c8Sf2eollF-9" value="" style="endArrow=none;html=1;rounded=0;startArrow=classicThin;startFill=1;endFill=0;entryX=0;entryY=0;entryDx=0;entryDy=0;fontFamily=Times New Roman;fontSize=11;" edge="1" parent="1" source="TMEMqODfY8c8Sf2eollF-1" target="TMEMqODfY8c8Sf2eollF-3">
          <mxGeometry width="50" height="50" relative="1" as="geometry">
            <mxPoint x="460" y="400" as="sourcePoint" />
            <mxPoint x="490" y="440" as="targetPoint" />
          </mxGeometry>
        </mxCell>
        <mxCell id="TMEMqODfY8c8Sf2eollF-13" value="&lt;div style=&quot;font-size: 8px;&quot;&gt;REC &amp;gt;= 127&amp;nbsp;&lt;/div&gt;&lt;div style=&quot;font-size: 8px;&quot;&gt;ili&lt;br style=&quot;font-size: 8px;&quot;&gt;&lt;/div&gt;&lt;div style=&quot;font-size: 8px;&quot;&gt;TEC &amp;gt;= 127&lt;br style=&quot;font-size: 8px;&quot;&gt;&lt;/div&gt;" style="edgeLabel;html=1;align=center;verticalAlign=middle;resizable=0;points=[];fontFamily=Times New Roman;fontSize=8;labelBackgroundColor=default;" vertex="1" connectable="0" parent="1">
          <mxGeometry x="360.0032034355964" y="389.9967965644035" as="geometry">
            <mxPoint x="-11" y="-3" as="offset" />
          </mxGeometry>
        </mxCell>
        <mxCell id="TMEMqODfY8c8Sf2eollF-14" value="Reset" style="edgeLabel;html=1;align=center;verticalAlign=middle;resizable=0;points=[];labelBackgroundColor=default;rotation=0;fontFamily=Times New Roman;fontSize=8;" vertex="1" connectable="0" parent="1">
          <mxGeometry x="480.00320343559633" y="409.9967965644035" as="geometry">
            <mxPoint x="2" as="offset" />
          </mxGeometry>
        </mxCell>
      </root>
    </mxGraphModel>
  </diagram>
</mxfile>
